<?xml version="1.0" encoding="iso-8859-1"?>
<!-- Generator: Adobe Illustrator 19.0.0, SVG Export Plug-In . SVG Version: 6.00 Build 0)  -->
<svg version="1.1" id="Layer_1" xmlns="http://www.w3.org/2000/svg" xmlns:xlink="http://www.w3.org/1999/xlink" x="0px" y="0px"
	 viewBox="0 0 511.999 511.999" style="enable-background:new 0 0 511.999 511.999;" xml:space="preserve">
<g>
	<g>
		<g>
			<circle cx="219.571" cy="224.359" r="44.602"/>
			<circle cx="292.428" cy="292.428" r="27.507"/>
			<path d="M491.769,207.286c-11.173,0-20.231,9.058-20.231,20.231v8.251h-48.783c-3.762-31.193-16.097-59.783-34.586-83.329
				l34.545-34.545l5.836,5.836c7.901,7.902,20.71,7.901,28.61,0c7.901-7.899,7.901-20.71,0-28.61
				c-1.057-1.057-2.013-2.013-2.881-2.881c-0.115-0.115-0.22-0.22-0.331-0.331c-0.102-0.102-0.238-0.238-0.392-0.392
				c0.065,0.065,0.132,0.132,0.189,0.189c-0.154-0.154-0.306-0.306-0.454-0.454c-0.041-0.041-0.086-0.086-0.126-0.126
				c-0.118-0.118-0.236-0.236-0.35-0.35c-1.057-1.057-2.754-2.754-5.3-5.3c-0.376-0.376-0.568-0.568-0.596-0.596
				c-5.593-5.593-14.954-14.954-30.04-30.04c-7.899-7.899-20.709-7.899-28.61,0c-7.901,7.899-7.901,20.711,0,28.61l5.836,5.836
				l-34.545,34.545c-23.546-18.49-52.136-30.825-83.329-34.586V40.461h8.251c11.173,0,20.231-9.058,20.231-20.231
				S295.656,0,284.483,0h-56.964c-11.173,0-20.231,9.058-20.231,20.231s9.058,20.231,20.231,20.231h8.251v48.783
				c-31.193,3.762-59.783,16.097-83.329,34.586l-34.546-34.545l5.836-5.836c7.901-7.899,7.901-20.71,0-28.61
				c-7.899-7.899-20.71-7.899-28.61,0c-2.238,2.238-4.03,4.03-5.456,5.456c-4.168,4.168-14.111,14.111-34.825,34.825
				c-7.901,7.899-7.901,20.709,0,28.61c7.902,7.902,20.71,7.901,28.61,0l5.836-5.836l34.545,34.545
				c-18.49,23.546-30.825,52.136-34.586,83.329H40.461v-8.251c0-11.173-9.058-20.231-20.231-20.231S0,216.344,0,227.517v56.964
				c0,11.173,9.058,20.231,20.231,20.231s20.231-9.058,20.231-20.231v-8.251h48.783c3.762,31.193,16.097,59.783,34.586,83.329
				l-34.545,34.545l-5.836-5.836c-7.899-7.899-20.71-7.899-28.61,0c-7.901,7.899-7.901,20.71,0,28.61
				c1.057,1.057,2.013,2.013,2.881,2.881c5.376,5.376,7.266,7.266,7.36,7.36c5.593,5.593,14.954,14.954,30.04,30.04
				c7.902,7.901,20.709,7.901,28.61,0c7.901-7.899,7.901-20.71,0-28.61l-5.836-5.836l34.545-34.545
				c23.546,18.49,52.136,30.825,83.329,34.586v48.783h-8.251c-11.173,0-20.231,9.058-20.231,20.231
				c0,11.173,9.058,20.231,20.231,20.231h56.964c11.173,0,20.231-9.058,20.231-20.231c0-11.173-9.058-20.231-20.231-20.231h-8.251
				v-48.783c31.193-3.762,59.783-16.097,83.329-34.586l34.545,34.545l-5.836,5.836c-7.901,7.899-7.901,20.709,0,28.61
				c7.901,7.901,20.709,7.901,28.61,0c16.451-16.451,20.059-20.059,20.457-20.456c-0.49,0.49-5.251,5.25,19.824-19.824
				c7.901-7.899,7.901-20.71,0-28.61c-7.899-7.899-20.709-7.899-28.61,0l-5.836,5.836l-34.545-34.545
				c18.49-23.546,30.825-52.136,34.586-83.329h48.783v8.251c0,11.173,9.058,20.231,20.231,20.231s20.231-9.058,20.231-20.231
				v-56.964C512,216.344,502.942,207.286,491.769,207.286z M256.001,383.516c-70.314,0-127.517-57.203-127.517-127.517
				s57.203-127.517,127.517-127.517s127.517,57.203,127.517,127.517S326.313,383.516,256.001,383.516z"/>
		</g>
	</g>
</g>
<g>
</g>
<g>
</g>
<g>
</g>
<g>
</g>
<g>
</g>
<g>
</g>
<g>
</g>
<g>
</g>
<g>
</g>
<g>
</g>
<g>
</g>
<g>
</g>
<g>
</g>
<g>
</g>
<g>
</g>
</svg>
